<?xml version="1.0" standalone="no"?>
<!DOCTYPE svg PUBLIC "-//W3C//DTD SVG 20010904//EN"
 "http://www.w3.org/TR/2001/REC-SVG-20010904/DTD/svg10.dtd">
<svg version="1.0" xmlns="http://www.w3.org/2000/svg" height="37.000000pt" viewBox="0 0 300.000000 35.000000"
 preserveAspectRatio="xMidYMid meet">
<metadata>
Created by potrace 1.10, written by Peter Selinger 2001-2011
</metadata>
<g transform="translate(0.000000,35.000000) scale(0.100000,-0.100000)"
fill="#000000" stroke="none">
<path d="M483 280 c-40 -24 -53 -48 -53 -100 0 -35 6 -48 35 -77 33 -33 39
-35 80 -30 54 6 80 23 64 43 -9 11 -13 11 -26 -1 -23 -23 -71 -18 -98 10 -35
34 -33 78 4 116 33 33 56 36 89 13 22 -15 42 -12 42 7 0 12 -61 39 -87 39 -10
0 -32 -9 -50 -20z"/>
<path d="M90 180 l0 -110 75 0 c60 0 75 3 75 15 0 12 -13 15 -60 15 l-60 0 0
39 0 38 50 -5 c41 -4 50 -2 50 12 0 13 -10 16 -50 16 l-50 0 0 36 0 35 57 -2
c37 -2 58 1 61 9 3 9 -18 12 -72 12 l-76 0 0 -110z"/>
<path d="M2100 180 l0 -110 59 0 c45 0 65 5 86 22 40 31 56 77 44 121 -15 56
-50 77 -125 77 l-64 0 0 -110z m119 75 c76 -39 43 -155 -44 -155 l-35 0 0 85
c0 84 0 85 25 85 15 0 39 -7 54 -15z"/>
<path d="M672 197 c-45 -48 -11 -127 55 -127 31 0 73 42 73 73 0 67 -83 102
-128 54z m78 -17 c11 -11 20 -25 20 -31 0 -24 -22 -49 -43 -49 -45 0 -62 46
-30 82 21 23 28 23 53 -2z"/>
<path d="M830 143 c0 -58 3 -73 15 -73 11 0 15 13 15 54 0 60 19 88 48 69 12
-7 18 -27 20 -67 2 -41 7 -56 17 -56 11 0 15 13 15 54 0 60 19 88 48 69 12 -7
18 -27 20 -67 2 -41 7 -56 17 -56 18 0 21 100 5 131 -12 21 -74 27 -85 9 -4
-6 -13 -7 -23 -1 -10 5 -39 9 -65 9 l-47 -1 0 -74z"/>
<path d="M1090 142 c0 -64 2 -73 17 -70 14 2 17 12 14 49 -3 50 18 83 48 77
12 -2 17 -17 19 -66 2 -51 6 -62 20 -62 14 0 17 10 17 55 0 57 13 78 45 72 11
-2 16 -19 18 -65 3 -53 6 -62 22 -62 16 0 18 6 13 63 -3 34 -10 68 -16 75 -13
17 -62 15 -78 -4 -11 -14 -13 -14 -21 0 -6 11 -24 15 -63 14 l-55 -2 0 -74z"/>
<path d="M1370 200 c-28 -28 -26 -81 3 -108 27 -26 79 -29 97 -7 14 16 13 17
-45 19 -27 1 -41 6 -43 17 -2 13 6 15 53 11 53 -4 55 -3 55 20 0 62 -75 93
-120 48z m71 -10 c31 -17 22 -30 -21 -30 -42 0 -52 12 -22 29 21 13 20 13 43
1z"/>
<path d="M1520 144 c0 -58 3 -74 14 -74 11 0 16 15 18 52 3 46 6 54 31 66 40
19 33 31 -18 30 l-45 -1 0 -73z"/>
<path d="M1642 197 c-29 -31 -29 -77 1 -105 26 -25 78 -29 96 -9 15 19 4 27
-30 20 -17 -3 -35 0 -44 7 -36 30 2 103 42 81 26 -13 56 4 33 19 -27 18 -75
11 -98 -13z"/>
<path d="M1790 200 c-28 -28 -26 -81 3 -108 27 -26 79 -29 97 -7 14 16 13 17
-45 19 -27 1 -41 6 -43 16 -2 13 9 15 55 15 52 0 58 2 55 20 -2 11 -10 30 -18
43 -19 29 -76 30 -104 2z m71 -10 c31 -17 22 -30 -21 -30 -42 0 -52 12 -22 29
21 13 20 13 43 1z"/>
<path d="M2341 194 c-28 -35 -26 -69 4 -99 33 -34 105 -33 105 1 0 11 -9 13
-38 8 -28 -4 -41 -2 -51 10 -7 9 -10 16 -5 17 5 0 32 1 59 2 47 2 50 4 47 26
-7 62 -83 84 -121 35z m79 -9 c18 -21 9 -27 -36 -23 -36 3 -37 4 -20 21 21 21
40 22 56 2z"/>
<path d="M2490 143 c0 -67 2 -73 20 -73 19 0 20 4 14 48 -5 38 -2 52 11 65 38
39 59 17 56 -59 -1 -48 1 -54 19 -54 18 0 20 6 20 54 0 56 17 83 45 72 11 -4
15 -21 15 -66 0 -54 2 -60 20 -60 20 0 21 4 14 63 -4 34 -11 68 -17 75 -12 15
-59 16 -75 0 -8 -8 -15 -8 -24 0 -8 6 -37 10 -66 10 l-52 -1 0 -74z"/>
<path d="M2770 193 c-26 -33 -21 -79 11 -106 47 -38 119 -3 119 59 0 71 -86
103 -130 47z m82 -10 c35 -31 17 -83 -29 -83 -21 0 -43 25 -43 49 0 12 36 51
47 51 3 0 15 -7 25 -17z"/>
<path d="M280 147 c0 -9 17 -13 55 -13 38 0 55 4 55 13 0 9 -17 13 -55 13 -38
0 -55 -4 -55 -13z"/>
<path d="M1950 147 c0 -18 102 -17 108 1 2 8 -12 12 -52 12 -40 0 -56 -4 -56
-13z"/>
</g>
</svg>
